# xmcd
#
# Track frame offsets: 
#        150
#        17322
#        42112
#        59022
#        79022
#        94295
#        110912
#        128527
#        145112
#        172785
#        192175
#        212295
#
# Disc length: 3059 seconds
#
# Revision: 0
# Processed by: cddbd v1.4PL0 Copyright (c) Steve Scherf et al.
# Submitted via: ExactAudioCopy v0.90b4
#
DISCID=950bf10c
DTITLE=Curtis Jones - Blue As I
DYEAR=1999
DGENRE=Bluegrass
TTITLE0=Blue As I
TTITLE1=Long Time Gone
TTITLE2=Lonely Prisoner
TTITLE3=Pistol Pete
TTITLE4=I'll Be Around Somewhere
TTITLE5=Lonely Path Of Cold
TTITLE6=This Old Farm
TTITLE7=Lonesome Timber
TTITLE8='Till I Come Back Again
TTITLE9=Better Days
TTITLE10=The Old Guitar
TTITLE11=Don't Be Surprised
EXTD=
EXTT0=
EXTT1=
EXTT2=
EXTT3=
EXTT4=
EXTT5=
EXTT6=
EXTT7=
EXTT8=
EXTT9=
EXTT10=
EXTT11=
PLAYORDER=
